{"title":"Rick and Morty - Episodes 1-6 720p XVID MP3 .AVI","uid":9588339,"size":3734028214,"categoryP":"video","categoryS":"hd___tv_shows","magnet":"?xt=urn:btih:9a4fa9ab06074cc05f6c7f1b7e0d5af6db701823&amp;dn=Rick+and+Morty+-+Episodes+1-6+720p+XVID+MP3+.AVI&amp;tr=udp%3A%2F%2Ftracker.openbittorrent.com%3A80&amp;tr=udp%3A%2F%2Fopen.demonii.com%3A1337&amp;tr=udp%3A%2F%2Ftracker.coppersurfer.tk%3A6969&amp;tr=udp%3A%2F%2Fexodus.desync.com%3A6969","seeders":3,"leechers":1,"uploader":"Danimal1q2w3","files":6,"time":1391858090,"description":"One of these came from \n &lt;a href=&quot;\nhttps://thepiratebay.se/user/frostyon420&quot; rel=&quot;nofollow&quot; target=&quot;_NEW&quot;&gt;\nhttps://thepiratebay.se/user/frostyon420&lt;/a&gt;\n\nMedia info from the 1st episode\n\nVideo\nID                                       : 0\nFormat                                   : MPEG-4 Visual\nFormat profile                           : Simple@L3\nFormat settings, BVOP                    : No\nFormat settings, QPel                    : No\nFormat settings, GMC                     : No warppoints\nFormat settings, Matrix                  : Default (H.263)\nCodec ID                                 : XVID\nCodec ID/Hint                            : XviD\nDuration                                 : 22mn 28s\nBit rate                                 : 3 310 Kbps\nWidth                                    : 1 280 pixels\nHeight                                   : 720 pixels\nDisplay aspect ratio                     : 16:9\nFrame rate                               : 23.976 fps\nColor space                              : YUV\nChroma subsampling                       : 4:2:0\nBit depth                                : 8 bits\nScan type                                : Progressive\nCompression mode                         : Lossy\nBits/(Pixel*Frame)                       : 0.150\nStream size                              : 532 MiB (91%)\nWriting library                          : XviD 63\n\nAudio\nID                                       : 1\nFormat                                   : MPEG Audio\nFormat version                           : Version 1\nFormat profile                           : Layer 3\nMode                                     : Joint stereo\nMode extension                           : MS Stereo\nCodec ID                                 : 55\nCodec ID/Hint                            : MP3\nDuration                                 : 22mn 28s\nBit rate mode                            : Variable\nBit rate                                 : 312 Kbps\nChannel(s)                               : 2 channels\nSampling rate                            : 48.0 KHz\nCompression mode                         : Lossy\nStream size                              : 50.1 MiB (9%)\nAlignment                                : Aligned on interleaves\nInterleave, duration                     : 24 ms (0.58 video frame)\nInterleave, preload duration             : 507 ms\n","torrent":{"xt":"urn:btih:9a4fa9ab06074cc05f6c7f1b7e0d5af6db701823","amp;dn":"Rick+and+Morty+-+Episodes+1-6+720p+XVID+MP3+.AVI","amp;tr":["udp%3A%2F%2Ftracker.openbittorrent.com%3A80","udp%3A%2F%2Fopen.demonii.com%3A1337","udp%3A%2F%2Ftracker.coppersurfer.tk%3A6969","udp%3A%2F%2Fexodus.desync.com%3A6969"],"infoHash":"9a4fa9ab06074cc05f6c7f1b7e0d5af6db701823","infoHashBuffer":{"type":"Buffer","data":[154,79,169,171,6,7,76,192,95,108,127,27,126,13,90,246,219,112,24,35]},"announce":[],"urlList":[]}}